<?xml version="1.0" encoding="UTF-8" standalone="no"?>
<svg width="104px" height="84px" viewBox="0 0 104 84" version="1.1" xmlns="http://www.w3.org/2000/svg" xmlns:xlink="http://www.w3.org/1999/xlink">
    <!-- Generator: Sketch 50.2 (55047) - http://www.bohemiancoding.com/sketch -->
    <title>Slice 1</title>
    <desc>Created with Sketch.</desc>
    <defs></defs>
    <g id="Page-1" stroke="none" stroke-width="1" fill="none" fill-rule="evenodd">
        <path d="M61.6,6.1 L27.1,6.1 L27.1,40.6 L69.6,83.4 L104,48.9 L61.6,6.1 Z M44.6,27.6 C42.4,27.6 40.7,25.8 40.7,23.7 C40.7,21.6 42.5,19.8 44.6,19.8 C46.7,19.8 48.5,21.6 48.5,23.7 C48.5,25.8 46.8,27.6 44.6,27.6 Z" id="Shape" fill="#C4F1E0" fill-rule="nonzero"></path>
        <g id="Group" transform="translate(51.000000, 35.000000)">
            <g transform="translate(3.000000, 2.000000)" fill="#FAFAFA" fill-rule="nonzero" id="Shape">
                <path d="M22.3,0.8 C19.4,0.8 16.9,2.2 15.5,4.5 C14.1,2.3 11.5,0.8 8.7,0.8 C4.2,0.8 0.5,4.5 0.5,9 C0.5,17.2 15.5,29.4 15.5,29.4 C15.5,29.4 30.5,17.1 30.5,9 C30.5,4.4 26.8,0.8 22.3,0.8 Z"></path>
            </g>
            <path d="M22.3,0.6 C19.4,0.6 16.9,2 15.5,4.3 C14.1,2.1 11.5,0.6 8.7,0.6 C4.2,0.6 0.5,4.3 0.5,8.8 C0.5,17 15.5,29.2 15.5,29.2 C15.5,29.2 30.5,16.9 30.5,8.8 C30.5,4.3 26.8,0.6 22.3,0.6 Z" id="Shape" stroke="#6170FF" stroke-width="3" stroke-linecap="round" stroke-linejoin="round"></path>
        </g>
        <g id="Group" transform="translate(36.000000, 15.000000)" stroke="#6170FF" stroke-linecap="round" stroke-linejoin="round" stroke-width="3">
            <circle id="Oval" cx="4.6" cy="4.6" r="3.9"></circle>
        </g>
        <polygon id="Shape" stroke="#6170FF" stroke-width="3" stroke-linecap="round" stroke-linejoin="round" points="66.3 79.6 100.8 45.2 57.6 2.1 23.1 2.1 23.1 36.5"></polygon>
        <polyline id="Shape" stroke="#88E4C2" stroke-width="3" stroke-linecap="round" stroke-linejoin="round" points="65.6 18.4 57.7 10.7 51.2 10.7"></polyline>
        <path d="M73.9,26.8 L69.6,22.6" id="Shape" stroke="#88E4C2" stroke-width="3" stroke-linecap="round" stroke-linejoin="round"></path>
        <path d="M38.6,16.3 C39.9,17.2 40.7,18.2 40.7,19.3 C40.7,22.9 32,25.8 21.4,25.8 C10.8,25.8 2,22.8 2,19.2 C2,15.6 10.7,12.7 21.3,12.7 C21.9,12.7 22.5,12.7 23.1,12.7" id="Shape" stroke="#6170FF" stroke-width="3" stroke-linecap="round" stroke-linejoin="round"></path>
    </g>
</svg>