<?xml version="1.0" encoding="UTF-8" standalone="no"?>
<svg width="103px" height="77px" viewBox="0 0 103 77" version="1.1" xmlns="http://www.w3.org/2000/svg" xmlns:xlink="http://www.w3.org/1999/xlink">
    <!-- Generator: Sketch 50.2 (55047) - http://www.bohemiancoding.com/sketch -->
    <title>Slice 1</title>
    <desc>Created with Sketch.</desc>
    <defs></defs>
    <g id="Page-1" stroke="none" stroke-width="1" fill="none" fill-rule="evenodd">
        <rect id="Rectangle-path" fill="#FFF5CD" fill-rule="nonzero" x="5.5" y="14.5" width="96.9" height="62.4"></rect>
        <g id="Group" transform="translate(2.000000, 2.000000)" stroke="#6170FF" stroke-linecap="round" stroke-linejoin="round" stroke-width="3">
            <rect id="Rectangle-path" x="0.1" y="0.1" width="95.2" height="69.2"></rect>
        </g>
        <path d="M2.1,11.1 L97.3,11.1" id="Shape" stroke="#6170FF" stroke-width="3" stroke-linecap="round" stroke-linejoin="round"></path>
        <g id="Group" transform="translate(12.000000, 22.000000)" stroke="#6170FF" stroke-linecap="round" stroke-linejoin="round" stroke-width="3">
            <rect id="Rectangle-path" x="0.6" y="0.2" width="52.4" height="12.2"></rect>
            <path d="M23.9,19.7 L0.6,19.7" id="Shape"></path>
            <path d="M23.9,26.2 L0.6,26.2" id="Shape"></path>
            <path d="M23.9,32.7 L0.6,32.7" id="Shape"></path>
            <path d="M23.9,39.2 L0.6,39.2" id="Shape"></path>
        </g>
        <g id="Group" transform="translate(41.000000, 41.000000)" stroke="#6170FF" stroke-linecap="round" stroke-linejoin="round" stroke-width="3">
            <path d="M24,0.7 L0.7,0.7" id="Shape"></path>
            <path d="M24,7.2 L0.7,7.2" id="Shape"></path>
            <path d="M24,13.7 L0.7,13.7" id="Shape"></path>
            <path d="M24,20.2 L0.7,20.2" id="Shape"></path>
        </g>
        <rect id="Rectangle-path" stroke="#C4F1E0" stroke-width="3" fill="#C4F1E0" fill-rule="nonzero" stroke-linecap="round" stroke-linejoin="round" x="72" y="22.2" width="16.4" height="39"></rect>
    </g>
</svg>