<?xml version="1.0" encoding="UTF-8" standalone="no"?>
<svg width="84px" height="84px" viewBox="0 0 84 84" version="1.1" xmlns="http://www.w3.org/2000/svg" xmlns:xlink="http://www.w3.org/1999/xlink">
    <!-- Generator: Sketch 50.2 (55047) - http://www.bohemiancoding.com/sketch -->
    <title>Slice 1</title>
    <desc>Created with Sketch.</desc>
    <defs></defs>
    <g id="Page-1" stroke="none" stroke-width="1" fill="none" fill-rule="evenodd">
        <path d="M16.1,37.6 C16.8,37.9 17.2,38.4 17.2,39.1 L20.2,39.1 C20.2,37.2 19,35.6 17.3,34.8 C15.5,34.1 13.6,34.5 12.2,35.8 L10.5,37.5 L7.3,34.3 L9,32.6 C10.3,31.3 10.7,29.3 10,27.5 C9.3,25.7 7.6,24.6 5.7,24.6 L3.4,24.6 L3.4,20.1 L5.7,20.1 C7.6,20.1 9.3,19 10,17.2 C10.7,15.4 10.4,13.4 9,12.1 L7.3,10.4 L10.5,7.2 L12.2,8.9 C13.6,10.2 15.5,10.6 17.3,9.9 C19.1,9.2 20.2,7.5 20.2,5.6 L20.2,3.3 L24.7,3.3 L24.7,5.6 C24.7,7.5 25.8,9.2 27.6,9.9 C29.4,10.6 31.4,10.3 32.7,8.9 L34.4,7.2 L37.6,10.4 L35.9,12.1 C34.6,13.4 34.2,15.4 34.9,17.2 C35.6,18.9 37.3,20.1 39.2,20.1 L39.2,17.1 C38.5,17.1 38,16.7 37.7,16.1 C37.4,15.4 37.5,14.7 38,14.3 L40.7,11.6 C41.3,11 41.3,10.1 40.7,9.5 L35.4,4.2 C34.8,3.6 33.9,3.6 33.3,4.2 L30.6,6.9 C30.1,7.4 29.4,7.5 28.8,7.2 C28.2,6.9 27.8,6.3 27.8,5.7 L27.8,1.9 C27.8,1.1 27.1,0.4 26.3,0.4 L18.8,0.4 C18,0.4 17.3,1.1 17.3,1.9 L17.3,5.7 C17.3,6.4 16.9,7 16.3,7.2 C15.6,7.5 14.9,7.4 14.5,6.9 L11.8,4.2 C11.2,3.6 10.2,3.6 9.7,4.2 L4.4,9.5 C3.8,10.1 3.8,11 4.4,11.6 L7.1,14.3 C7.6,14.8 7.7,15.5 7.4,16.1 C7.1,16.7 6.5,17.1 5.9,17.1 L2.1,17.1 C1.3,17.1 0.6,17.8 0.6,18.6 L0.6,26.1 C0.6,26.9 1.3,27.6 2.1,27.6 L5.9,27.6 C6.6,27.6 7.2,28 7.4,28.7 C7.7,29.3 7.5,30 7.1,30.5 L4.4,33.2 C3.8,33.8 3.8,34.7 4.4,35.3 L9.7,40.6 C10.3,41.2 11.3,41.2 11.8,40.6 L14.5,37.9 C14.8,37.5 15.5,37.3 16.1,37.6 Z" id="Shape" fill="#6170FF" fill-rule="nonzero"></path>
        <path d="M18.8,28.5 C19,28.2 19.2,27.9 19.4,27.6 L20.8,26.2 C19.3,25.6 18.3,24.1 18.3,22.4 C18.3,20.1 20.1,18.3 22.4,18.3 C24.1,18.3 25.5,19.3 26.2,20.8 L27.6,19.4 C27.9,19.1 28.2,18.9 28.5,18.8 C27.3,16.7 25,15.4 22.4,15.4 C18.5,15.4 15.3,18.6 15.3,22.5 C15.3,25 16.7,27.3 18.8,28.5 Z" id="Shape" fill="#6170FF" fill-rule="nonzero"></path>
        <path d="M77.8,57.7 L83.8,57.7 L83.8,46.1 L77.8,46.1 C75.8,46.1 74,44.9 73.3,43.1 C72.5,41.1 73,39 74.3,37.7 L78.5,33.5 L70.3,25.3 L66.1,29.5 C64.8,30.8 62.7,31.3 60.7,30.5 C58.9,29.7 57.7,28 57.7,26 L57.7,20 L46.1,20 L46.1,26 C46.1,28 44.9,29.8 43.1,30.5 C41.1,31.3 39,30.8 37.7,29.5 L33.5,25.3 L25.3,33.5 L29.5,37.7 C30.8,39 31.3,41.1 30.5,43.1 C29.7,44.9 28,46.1 26,46.1 L20,46.1 L20,57.7 L26,57.7 C27.9,57.7 29.7,58.8 30.5,60.8 C31.3,62.6 30.9,64.7 29.5,66.1 L25.3,70.3 L33.5,78.5 L37.7,74.3 C39.1,72.9 41.2,72.5 43,73.3 C45,74.1 46.1,76 46.1,77.8 L46.1,83.8 L57.7,83.8 L57.7,77.8 C57.7,75.9 58.8,74.1 60.8,73.3 C62.6,72.5 64.7,72.9 66.1,74.3 L70.3,78.5 L78.5,70.3 L74.3,66.1 C73,64.8 72.5,62.7 73.3,60.7 C74.1,58.9 75.9,57.7 77.8,57.7 Z M51.9,60.6 C47.1,60.6 43.2,56.7 43.2,51.9 C43.2,47.1 47.1,43.2 51.9,43.2 C56.7,43.2 60.6,47.1 60.6,51.9 C60.6,56.7 56.7,60.6 51.9,60.6 Z" id="Shape" fill="#FFF5CD" fill-rule="nonzero"></path>
        <path d="M80.8,54.7 L80.8,43.1 L74.8,43.1 C72.8,43.1 71,41.9 70.3,40.1 C69.5,38.1 70,36 71.3,34.7 L75.5,30.5 L67.3,22.3 L63.1,26.5 C61.8,27.8 59.7,28.3 57.7,27.5 C55.9,26.7 54.7,25 54.7,23 L54.7,17 L43.1,17 L43.1,23 C43.1,25 41.9,26.8 40.1,27.5 C38.1,28.3 36,27.8 34.7,26.5 L30.5,22.3 L22.3,30.5 L26.5,34.7 C27.8,36 28.3,38.1 27.5,40.1 C26.7,41.9 25,43.1 23,43.1 L17,43.1 L17,54.7 L23,54.7 C24.9,54.7 26.7,55.8 27.5,57.8 C28.3,59.6 27.9,61.7 26.5,63.1 L22.3,67.3 L30.5,75.5 L34.7,71.3 C36.1,69.9 38.2,69.5 40,70.3 C42,71.1 43.1,73 43.1,74.8 L43.1,80.8 L54.7,80.8 L54.7,74.8 C54.7,72.9 55.8,71.1 57.8,70.3 C59.6,69.5 61.7,69.9 63.1,71.3 L67.3,75.5 L75.5,67.3 L71.3,63.1 C70,61.8 69.5,59.7 70.3,57.7 C71.1,55.9 72.8,54.7 74.8,54.7 L80.8,54.7 Z" id="Shape" stroke="#6170FF" stroke-width="3" stroke-linecap="round" stroke-linejoin="round"></path>
        <circle id="Oval" stroke="#6170FF" stroke-width="3" stroke-linecap="round" stroke-linejoin="round" cx="48.9" cy="48.9" r="8.7"></circle>
        <path d="M39.4,62.7 C38.4,61.9 37.4,61 36.6,60" id="Shape" stroke="#FEEB9C" stroke-width="3" stroke-linecap="round" stroke-linejoin="round"></path>
        <path d="M33.7,55 C33,53.2 32.7,51.2 32.7,49.2 C32.7,39.9 40.2,32.4 49.5,32.4 C52.1,32.4 54.5,33 56.7,34" id="Shape" stroke="#FEEB9C" stroke-width="3" stroke-linecap="round" stroke-linejoin="round"></path>
    </g>
</svg>